<mxfile host="app.diagrams.net" modified="2023-09-05T13:44:27.978Z" agent="Mozilla/5.0 (X11; Linux x86_64; rv:109.0) Gecko/20100101 Firefox/116.0" etag="GQCOncudJW56rgUN0tt_" version="21.7.2" type="device">
  <diagram name="Page-1" id="aDgRZFvFXDjg_jGfRXhe">
    <mxGraphModel dx="2099" dy="680" grid="1" gridSize="10" guides="1" tooltips="1" connect="1" arrows="1" fold="1" page="1" pageScale="1" pageWidth="827" pageHeight="1169" math="0" shadow="0">
      <root>
        <mxCell id="0" />
        <mxCell id="1" parent="0" />
        <mxCell id="en180CTn0l9zymGrBvhz-39" value="LOOP" style="shape=umlFrame;whiteSpace=wrap;html=1;pointerEvents=0;fillColor=#F5F5F5;strokeColor=#666666;fontColor=#333333;swimlaneFillColor=#E6E6E6;" parent="1" vertex="1">
          <mxGeometry x="-340" y="260" width="1220" height="1070" as="geometry" />
        </mxCell>
        <mxCell id="en180CTn0l9zymGrBvhz-40" value="" style="group" parent="1" vertex="1" connectable="0">
          <mxGeometry x="-305" y="270" width="3200" height="1308.08" as="geometry" />
        </mxCell>
        <mxCell id="en180CTn0l9zymGrBvhz-18" value="" style="group" parent="en180CTn0l9zymGrBvhz-40" vertex="1" connectable="0">
          <mxGeometry x="30" width="1060" height="88.08080808080808" as="geometry" />
        </mxCell>
        <mxCell id="ziAq5ncUOEXPv-bApJY8-3" value="creazioneEvento(cliente, dataInizio, descrizione)" style="html=1;verticalAlign=bottom;endArrow=block;edgeStyle=elbowEdgeStyle;elbow=vertical;curved=0;rounded=0;strokeColor=#666666;labelBackgroundColor=none;" parent="en180CTn0l9zymGrBvhz-18" source="ziAq5ncUOEXPv-bApJY8-1" target="ziAq5ncUOEXPv-bApJY8-2" edge="1">
          <mxGeometry width="80" relative="1" as="geometry">
            <mxPoint x="80" as="sourcePoint" />
            <mxPoint x="500" y="11.01010101010101" as="targetPoint" />
            <Array as="points">
              <mxPoint x="760" y="33.03030303030303" />
              <mxPoint x="50" />
            </Array>
          </mxGeometry>
        </mxCell>
        <mxCell id="ziAq5ncUOEXPv-bApJY8-4" value="nuovo evento" style="html=1;verticalAlign=bottom;endArrow=none;edgeStyle=elbowEdgeStyle;elbow=vertical;curved=0;rounded=0;startArrow=open;startFill=0;endFill=0;dashed=1;strokeColor=#666666;labelBackgroundColor=none;" parent="en180CTn0l9zymGrBvhz-18" source="ziAq5ncUOEXPv-bApJY8-1" target="ziAq5ncUOEXPv-bApJY8-2" edge="1">
          <mxGeometry width="80" relative="1" as="geometry">
            <mxPoint x="630" y="187.17171717171718" as="sourcePoint" />
            <mxPoint x="710" y="187.17171717171718" as="targetPoint" />
            <Array as="points">
              <mxPoint x="760" y="66.06060606060606" />
              <mxPoint x="550" y="44.04040404040404" />
            </Array>
          </mxGeometry>
        </mxCell>
        <mxCell id="en180CTn0l9zymGrBvhz-37" value="LOOP" style="shape=umlFrame;whiteSpace=wrap;html=1;pointerEvents=0;fillColor=#F5F5F5;strokeColor=#666666;swimlaneFillColor=#E6E6E6;" parent="en180CTn0l9zymGrBvhz-40" vertex="1">
          <mxGeometry x="5" y="330" width="1120" height="590" as="geometry" />
        </mxCell>
        <mxCell id="DYl_nhM4-Qo1yMT7ztg8-1" value="" style="group" parent="en180CTn0l9zymGrBvhz-40" vertex="1" connectable="0">
          <mxGeometry x="10" y="88.08" width="1110" height="110" as="geometry" />
        </mxCell>
        <mxCell id="DYl_nhM4-Qo1yMT7ztg8-4" value="LOOP" style="shape=umlFrame;whiteSpace=wrap;html=1;pointerEvents=0;fillColor=#F5F5F5;strokeColor=#666666;swimlaneFillColor=#E6E6E6;gradientColor=none;shadow=0;" parent="DYl_nhM4-Qo1yMT7ztg8-1" vertex="1">
          <mxGeometry width="1110" height="110" as="geometry" />
        </mxCell>
        <mxCell id="LqKblC7Wvc4Bk4WyccNA-124" value="LOOP" style="shape=umlFrame;whiteSpace=wrap;html=1;pointerEvents=0;fillColor=#F5F5F5;strokeColor=#666666;" parent="en180CTn0l9zymGrBvhz-40" vertex="1">
          <mxGeometry x="35" y="380" width="1060" height="120" as="geometry" />
        </mxCell>
        <mxCell id="LqKblC7Wvc4Bk4WyccNA-119" value="OPT" style="shape=umlFrame;whiteSpace=wrap;html=1;pointerEvents=0;fillColor=#F5F5F5;strokeColor=#666666;swimlaneFillColor=#E6E6E6;" parent="en180CTn0l9zymGrBvhz-40" vertex="1">
          <mxGeometry x="10" y="220" width="1110" height="84" as="geometry" />
        </mxCell>
        <mxCell id="foloLPQ4tg3pwpEgOCVB-10" value="OPT" style="shape=umlFrame;whiteSpace=wrap;html=1;pointerEvents=0;fillColor=#F5F5F5;strokeColor=#666666;" parent="en180CTn0l9zymGrBvhz-40" vertex="1">
          <mxGeometry x="10" y="950" width="1120" height="88.08" as="geometry" />
        </mxCell>
        <mxCell id="foloLPQ4tg3pwpEgOCVB-11" value="chiusuraEvento(noteFinali?, documentazione?)" style="html=1;verticalAlign=bottom;endArrow=block;edgeStyle=elbowEdgeStyle;elbow=vertical;curved=0;rounded=0;movable=1;resizable=1;rotatable=1;deletable=1;editable=1;locked=0;connectable=1;strokeColor=#666666;labelBackgroundColor=none;" parent="en180CTn0l9zymGrBvhz-40" edge="1">
          <mxGeometry width="80" relative="1" as="geometry">
            <mxPoint x="95" y="989" as="sourcePoint" />
            <mxPoint x="1065" y="989" as="targetPoint" />
            <Array as="points">
              <mxPoint x="685" y="989" />
              <mxPoint x="616.14" y="1035.0400000000002" />
            </Array>
          </mxGeometry>
        </mxCell>
        <mxCell id="foloLPQ4tg3pwpEgOCVB-9" value="evento modificato" style="html=1;verticalAlign=bottom;endArrow=none;edgeStyle=elbowEdgeStyle;elbow=vertical;curved=0;rounded=0;startArrow=open;startFill=0;endFill=0;dashed=1;labelBackgroundColor=none;strokeColor=#666666;" parent="en180CTn0l9zymGrBvhz-40" edge="1">
          <mxGeometry width="80" relative="1" as="geometry">
            <mxPoint x="95" y="1015.9951515151515" as="sourcePoint" />
            <mxPoint x="1064.5" y="1016.060606060606" as="targetPoint" />
            <Array as="points">
              <mxPoint x="575" y="1016.060606060606" />
            </Array>
          </mxGeometry>
        </mxCell>
        <mxCell id="LqKblC7Wvc4Bk4WyccNA-173" value="LOOP" style="shape=umlFrame;whiteSpace=wrap;html=1;pointerEvents=0;fillColor=#F5F5F5;strokeColor=#666666;swimlaneFillColor=#E6E6E6;" parent="en180CTn0l9zymGrBvhz-40" vertex="1">
          <mxGeometry x="20" y="530" width="1090" height="120" as="geometry" />
        </mxCell>
        <mxCell id="LqKblC7Wvc4Bk4WyccNA-152" value="approvazioneMenu(servizio)" style="html=1;verticalAlign=bottom;endArrow=block;edgeStyle=elbowEdgeStyle;elbow=vertical;curved=0;rounded=0;labelBackgroundColor=none;exitX=0.5;exitY=0.483;exitDx=0;exitDy=0;exitPerimeter=0;" parent="en180CTn0l9zymGrBvhz-40" source="ziAq5ncUOEXPv-bApJY8-1" edge="1">
          <mxGeometry x="-0.0028" relative="1" as="geometry">
            <mxPoint x="89.99660377358491" y="590" as="sourcePoint" />
            <Array as="points" />
            <mxPoint x="1064.5" y="590.3333333333333" as="targetPoint" />
            <mxPoint as="offset" />
          </mxGeometry>
        </mxCell>
        <mxCell id="LqKblC7Wvc4Bk4WyccNA-156" value="servizio modificato" style="html=1;verticalAlign=bottom;endArrow=block;edgeStyle=elbowEdgeStyle;elbow=vertical;curved=0;rounded=0;labelBackgroundColor=none;dashed=1;" parent="en180CTn0l9zymGrBvhz-40" edge="1">
          <mxGeometry relative="1" as="geometry">
            <mxPoint x="1059.454858490566" y="619.3636363636364" as="sourcePoint" />
            <mxPoint x="94.16666666666652" y="619.3333333333333" as="targetPoint" />
            <Array as="points" />
          </mxGeometry>
        </mxCell>
        <mxCell id="en180CTn0l9zymGrBvhz-24" value="LOOP" style="shape=umlFrame;whiteSpace=wrap;html=1;pointerEvents=0;fillColor=#DAE8FC;strokeColor=#6C8EBF;swimlaneFillColor=#DAE8FC;" parent="en180CTn0l9zymGrBvhz-40" vertex="1">
          <mxGeometry x="20" y="680" width="1090" height="230" as="geometry" />
        </mxCell>
        <mxCell id="LqKblC7Wvc4Bk4WyccNA-185" value="ALT" style="shape=umlFrame;whiteSpace=wrap;html=1;swimlaneFillColor=#FF9999;fillColor=#f8cecc;strokeColor=#FF3333;fillOpacity=60;fontColor=#FF0000;" parent="en180CTn0l9zymGrBvhz-40" vertex="1">
          <mxGeometry x="35" y="740" width="1055" height="60" as="geometry" />
        </mxCell>
        <mxCell id="LqKblC7Wvc4Bk4WyccNA-186" value="" style="shape=umlFrame;whiteSpace=wrap;html=1;swimlaneFillColor=#FF9999;fillColor=#f8cecc;strokeColor=#FF3333;fillOpacity=60;fontColor=#FF0000;width=10;height=15;" parent="en180CTn0l9zymGrBvhz-40" vertex="1">
          <mxGeometry x="35" y="800" width="1055" height="50" as="geometry" />
        </mxCell>
        <mxCell id="LqKblC7Wvc4Bk4WyccNA-189" value="6.1a.1 L&#39;evento associato è terminato oppure annullato" style="html=1;verticalAlign=bottom;endArrow=open;edgeStyle=elbowEdgeStyle;elbow=vertical;curved=0;rounded=0;labelBackgroundColor=none;dashed=1;strokeColor=#FF0000;fontColor=#FF0000;endFill=0;" parent="en180CTn0l9zymGrBvhz-40" edge="1">
          <mxGeometry relative="1" as="geometry">
            <mxPoint x="1064.5" y="824" as="sourcePoint" />
            <mxPoint x="95" y="824.4700000000003" as="targetPoint" />
          </mxGeometry>
        </mxCell>
        <mxCell id="LqKblC7Wvc4Bk4WyccNA-187" value="" style="shape=umlDestroy;whiteSpace=wrap;html=1;strokeWidth=3;targetShapes=umlLifeline;" parent="en180CTn0l9zymGrBvhz-40" vertex="1">
          <mxGeometry x="1050" y="815" width="30" height="20" as="geometry" />
        </mxCell>
        <mxCell id="en180CTn0l9zymGrBvhz-15" value="disponibilità modificata" style="html=1;verticalAlign=bottom;endArrow=none;edgeStyle=elbowEdgeStyle;elbow=vertical;curved=0;rounded=0;startArrow=open;startFill=0;endFill=0;movable=1;resizable=1;rotatable=1;deletable=1;editable=1;locked=0;connectable=1;dashed=1;labelBackgroundColor=none;strokeColor=#666666;" parent="en180CTn0l9zymGrBvhz-40" edge="1">
          <mxGeometry width="80" relative="1" as="geometry">
            <mxPoint x="94.16666666666652" y="780.0039999999999" as="sourcePoint" />
            <mxPoint x="1064.5" y="780.0039999999999" as="targetPoint" />
            <Array as="points">
              <mxPoint x="575.2830188679246" y="780.0039999999999" />
            </Array>
          </mxGeometry>
        </mxCell>
        <mxCell id="2jw8LSFATa2Wizjef6eI-3" value="" style="shape=umlFrame;whiteSpace=wrap;html=1;swimlaneFillColor=#FF9999;fillColor=#f8cecc;strokeColor=#FF3333;fillOpacity=60;fontColor=#FF0000;width=10;height=15;" parent="en180CTn0l9zymGrBvhz-40" vertex="1">
          <mxGeometry x="35" y="850" width="1055" height="50" as="geometry" />
        </mxCell>
        <mxCell id="2jw8LSFATa2Wizjef6eI-4" value="6.1b.1 La disponibilità non è riferita ad un servizio dell&#39;evento corrente" style="html=1;verticalAlign=bottom;endArrow=open;edgeStyle=elbowEdgeStyle;elbow=vertical;curved=0;rounded=0;labelBackgroundColor=none;dashed=1;strokeColor=#FF0000;fontColor=#FF0000;endFill=0;" parent="en180CTn0l9zymGrBvhz-40" edge="1">
          <mxGeometry relative="1" as="geometry">
            <mxPoint x="1064.5" y="874" as="sourcePoint" />
            <mxPoint x="95" y="874.4700000000003" as="targetPoint" />
          </mxGeometry>
        </mxCell>
        <mxCell id="2jw8LSFATa2Wizjef6eI-5" value="" style="shape=umlDestroy;whiteSpace=wrap;html=1;strokeWidth=3;targetShapes=umlLifeline;" parent="en180CTn0l9zymGrBvhz-40" vertex="1">
          <mxGeometry x="1050" y="865" width="30" height="20" as="geometry" />
        </mxCell>
        <mxCell id="DYl_nhM4-Qo1yMT7ztg8-2" value="aggiuntaServizio(tipo, data, luogo, fasciaOraria, numeroPartecipanti, propaga)" style="html=1;verticalAlign=bottom;endArrow=block;edgeStyle=elbowEdgeStyle;elbow=vertical;curved=0;rounded=0;strokeColor=#666666;labelBackgroundColor=none;" parent="1" source="ziAq5ncUOEXPv-bApJY8-1" target="ziAq5ncUOEXPv-bApJY8-2" edge="1">
          <mxGeometry width="80" relative="1" as="geometry">
            <mxPoint x="140.64" y="424.14060606060605" as="sourcePoint" />
            <mxPoint x="460.64" y="424.14060606060605" as="targetPoint" />
            <Array as="points">
              <mxPoint x="200" y="402.120404040404" />
              <mxPoint x="360" y="380.100202020202" />
              <mxPoint x="291.14" y="424.14060606060605" />
            </Array>
          </mxGeometry>
        </mxCell>
        <mxCell id="DYl_nhM4-Qo1yMT7ztg8-3" value="nuovo servizio" style="html=1;verticalAlign=bottom;endArrow=none;edgeStyle=elbowEdgeStyle;elbow=vertical;curved=0;rounded=0;startArrow=open;startFill=0;endFill=0;dashed=1;labelBackgroundColor=none;strokeColor=#666666;" parent="1" source="ziAq5ncUOEXPv-bApJY8-1" target="ziAq5ncUOEXPv-bApJY8-2" edge="1">
          <mxGeometry width="80" relative="1" as="geometry">
            <mxPoint x="140.64" y="457.17090909090905" as="sourcePoint" />
            <mxPoint x="460.64" y="457.17090909090905" as="targetPoint" />
            <Array as="points">
              <mxPoint x="190" y="435.1507070707071" />
              <mxPoint x="260" y="413.130505050505" />
            </Array>
          </mxGeometry>
        </mxCell>
        <mxCell id="LqKblC7Wvc4Bk4WyccNA-118" value="evento modificato" style="html=1;verticalAlign=bottom;endArrow=none;edgeStyle=elbowEdgeStyle;elbow=vertical;curved=0;rounded=0;startArrow=open;startFill=0;endFill=0;dashed=1;labelBackgroundColor=none;" parent="1" edge="1">
          <mxGeometry width="80" relative="1" as="geometry">
            <mxPoint x="-210" y="562" as="sourcePoint" />
            <mxPoint x="760" y="562.0048484848485" as="targetPoint" />
            <Array as="points">
              <mxPoint x="270" y="562.0654545454545" />
            </Array>
          </mxGeometry>
        </mxCell>
        <mxCell id="LqKblC7Wvc4Bk4WyccNA-120" value="assegnazioneChef(chef)" style="html=1;verticalAlign=bottom;endArrow=block;edgeStyle=elbowEdgeStyle;elbow=vertical;curved=0;rounded=0;labelBackgroundColor=none;" parent="1" edge="1">
          <mxGeometry x="-0.0004" width="80" relative="1" as="geometry">
            <mxPoint x="-211" y="529" as="sourcePoint" />
            <mxPoint x="760" y="529" as="targetPoint" />
            <Array as="points">
              <mxPoint x="360" y="529.0351515151515" />
              <mxPoint x="291.14" y="573.0755555555555" />
            </Array>
            <mxPoint as="offset" />
          </mxGeometry>
        </mxCell>
        <mxCell id="ziAq5ncUOEXPv-bApJY8-2" value="Sistema" style="shape=umlLifeline;perimeter=lifelinePerimeter;whiteSpace=wrap;html=1;container=1;dropTarget=0;collapsible=0;recursiveResize=0;outlineConnect=0;portConstraint=eastwest;newEdgeStyle={&quot;edgeStyle&quot;:&quot;elbowEdgeStyle&quot;,&quot;elbow&quot;:&quot;vertical&quot;,&quot;curved&quot;:0,&quot;rounded&quot;:0};" parent="1" vertex="1">
          <mxGeometry x="710" y="190" width="100" height="1420" as="geometry" />
        </mxCell>
        <mxCell id="LqKblC7Wvc4Bk4WyccNA-128" value="prenotazionePersonale(disponibilità, servizio)" style="html=1;verticalAlign=bottom;endArrow=block;edgeStyle=elbowEdgeStyle;elbow=vertical;curved=0;rounded=0;labelBackgroundColor=none;" parent="1" edge="1">
          <mxGeometry x="-0.0028" relative="1" as="geometry">
            <mxPoint x="-210" y="700" as="sourcePoint" />
            <Array as="points" />
            <mxPoint x="760" y="701" as="targetPoint" />
            <mxPoint as="offset" />
          </mxGeometry>
        </mxCell>
        <mxCell id="LqKblC7Wvc4Bk4WyccNA-138" value="disponibilità modificata" style="html=1;verticalAlign=bottom;endArrow=block;edgeStyle=elbowEdgeStyle;elbow=vertical;curved=0;rounded=0;labelBackgroundColor=none;dashed=1;" parent="1" edge="1">
          <mxGeometry relative="1" as="geometry">
            <mxPoint x="759.5" y="736.1933333333333" as="sourcePoint" />
            <mxPoint x="-209.90151515151516" y="736.0000000000003" as="targetPoint" />
          </mxGeometry>
        </mxCell>
        <mxCell id="en180CTn0l9zymGrBvhz-14" value="assegnazioneRuolo(disponibilità, ruolo)" style="html=1;verticalAlign=bottom;endArrow=block;edgeStyle=elbowEdgeStyle;elbow=vertical;curved=0;rounded=0;movable=1;resizable=1;rotatable=1;deletable=1;editable=1;locked=0;connectable=1;strokeColor=#666666;labelBackgroundColor=none;" parent="1" source="ziAq5ncUOEXPv-bApJY8-1" target="ziAq5ncUOEXPv-bApJY8-2" edge="1">
          <mxGeometry width="80" relative="1" as="geometry">
            <mxPoint x="-243.8679245283019" y="996.04" as="sourcePoint" />
            <mxPoint x="753.5849056603774" y="996.04" as="targetPoint" />
            <Array as="points">
              <mxPoint x="362.83018867924534" y="996.04" />
              <mxPoint x="292.02132075471707" y="1042.08" />
            </Array>
          </mxGeometry>
        </mxCell>
        <mxCell id="ziAq5ncUOEXPv-bApJY8-1" value="" style="shape=umlLifeline;perimeter=lifelinePerimeter;whiteSpace=wrap;html=1;container=1;dropTarget=0;collapsible=0;recursiveResize=0;outlineConnect=0;portConstraint=eastwest;newEdgeStyle={&quot;edgeStyle&quot;:&quot;elbowEdgeStyle&quot;,&quot;elbow&quot;:&quot;vertical&quot;,&quot;curved&quot;:0,&quot;rounded&quot;:0};participant=umlActor;" parent="1" vertex="1">
          <mxGeometry x="-220" y="170" width="20" height="1430" as="geometry" />
        </mxCell>
      </root>
    </mxGraphModel>
  </diagram>
</mxfile>
